<svg xmlns="http://www.w3.org/2000/svg" xmlns:xlink="http://www.w3.org/1999/xlink" width="91" zoomAndPan="magnify" viewBox="0 0 68.25 30.000001" height="40" preserveAspectRatio="xMidYMid meet" version="1.0"><defs><g/></defs><g fill="#000000" fill-opacity="1"><g transform="translate(-1.021767, 24.632304)"><g><path d="M 10.8125 -22.078125 C 14.394531 -22.078125 17.128906 -21.148438 19.015625 -19.296875 C 20.910156 -17.453125 21.859375 -14.703125 21.859375 -11.046875 C 21.859375 -7.398438 20.910156 -4.644531 19.015625 -2.78125 C 17.128906 -0.925781 14.394531 0 10.8125 0 L 2.875 0 L 2.875 -22.078125 Z M 10.5625 -3.671875 C 12.832031 -3.671875 14.53125 -4.25 15.65625 -5.40625 C 16.789062 -6.570312 17.359375 -8.453125 17.359375 -11.046875 C 17.359375 -13.628906 16.789062 -15.503906 15.65625 -16.671875 C 14.53125 -17.835938 12.832031 -18.421875 10.5625 -18.421875 L 7.234375 -18.421875 L 7.234375 -3.671875 Z M 10.5625 -3.671875 "/></g></g></g><g fill="#000000" fill-opacity="1"><g transform="translate(22.580576, 24.632304)"><g><path d="M 2.875 0 L 2.875 -22.078125 L 12.296875 -22.078125 C 13.648438 -22.078125 14.796875 -21.863281 15.734375 -21.4375 C 16.679688 -21.007812 17.394531 -20.398438 17.875 -19.609375 C 18.363281 -18.816406 18.609375 -17.882812 18.609375 -16.8125 C 18.609375 -15.832031 18.367188 -14.96875 17.890625 -14.21875 C 17.421875 -13.476562 16.742188 -12.882812 15.859375 -12.4375 L 15.859375 -12.109375 C 17.253906 -11.753906 18.328125 -11.097656 19.078125 -10.140625 C 19.835938 -9.179688 20.21875 -8.003906 20.21875 -6.609375 C 20.21875 -4.492188 19.578125 -2.863281 18.296875 -1.71875 C 17.023438 -0.570312 15.132812 0 12.625 0 Z M 11.390625 -13.28125 C 13.421875 -13.28125 14.4375 -14.195312 14.4375 -16.03125 C 14.4375 -16.96875 14.1875 -17.664062 13.6875 -18.125 C 13.1875 -18.582031 12.421875 -18.8125 11.390625 -18.8125 L 7.234375 -18.8125 L 7.234375 -13.28125 Z M 12.1875 -3.453125 C 14.59375 -3.453125 15.796875 -4.546875 15.796875 -6.734375 C 15.796875 -8.929688 14.59375 -10.03125 12.1875 -10.03125 L 7.234375 -10.03125 L 7.234375 -3.453125 Z M 12.1875 -3.453125 "/></g></g></g><g fill="#000000" fill-opacity="1"><g transform="translate(44.174524, 24.632304)"><g><path d="M 17.125 -13.78125 L 17.125 -22.078125 L 21.484375 -22.078125 L 21.484375 0 L 17.125 0 L 17.125 -10.0625 L 7.234375 -10.0625 L 7.234375 0 L 2.875 0 L 2.875 -22.078125 L 7.234375 -22.078125 L 7.234375 -13.78125 Z M 17.125 -13.78125 "/></g></g></g></svg>